:SAMPLES-PER-SECOND 30
:FULLY-SPECIFIED
:DEGREES
450
root  87.9625 39.3647 -3.36734 -20.0475 -83.3711 21.9012
RightUpLeg  -2.34778 -10.4316 -7.86292
RightLeg  2.13167 -7.63729 0.738151
RightFoot  -1.55774 -0.183929 2.02037
RightToes  -4.65661e-009 0 -3.6325e-017
Spine  4.15068 1.3041 3.80926
Spine1  5.38076 1.93264 -2.30179
HEad  -8.24486 -17.2254 -6.3947
LeftShoulder1  -0.749574 5.43459 -32.6617
LeftArm  -1.63355 16.9117 -41.4347
LeftForeArm  23.9961 -20.0644 -4.15511
LeftHand  -0.0415954 6.34991 -0.790061
RightShoulder  -0.960332 -6.14531 29.7892
RightArm  11.6667 -20.8351 43.8507
RightForeArm  27.4645 4.897 5.7702
RightHand  0.00833066 -3.12523 1.19509
LeftUpLeg  -3.52292 4.17117 -1.00449
LeftLeg  1.34026 -0.133272 0.122151
LeftFoot  0.293642 -0.239346 2.3331
LeftToes  9.86798e-010 -1.28139e-010 1.4132e-011
451
root  87.9587 39.3597 -3.37242 -20.8359 -83.7912 22.5602
RightUpLeg  -2.37039 -10.3382 -7.7423
RightLeg  2.26644 -7.3236 0.699092
RightFoot  -1.57297 -0.180055 1.97898
RightToes  -4.65661e-009 0 -3.6325e-017
Spine  4.86226 0.887352 3.46882
Spine1  4.41837 1.45482 -2.13834
HEad  -8.07583 -16.2705 -6.52087
LeftShoulder1  -0.746838 5.44273 -32.3582
LeftArm  -0.442072 16.8299 -41.3632
LeftForeArm  23.172 -20.9335 -4.02345
LeftHand  -0.0500969 7.29964 -0.552999
RightShoulder  -0.967677 -6.13741 30.1738
RightArm  12.0077 -24.8793 43.011
RightForeArm  29.0096 5.74726 5.68841
RightHand  -0.0225539 -5.05011 1.46469
LeftUpLeg  -3.51551 4.29596 -0.860992
LeftLeg  1.71255 0.133154 0.0974645
LeftFoot  0.131029 -0.241114 2.39055
LeftToes  9.86798e-010 -1.28139e-010 1.4132e-011
452
root  87.9856 39.3541 -3.36549 -21.7511 -84.2366 23.5689
RightUpLeg  -2.57778 -10.4656 -7.70874
RightLeg  2.22192 -6.81814 0.918678
RightFoot  -1.51655 -0.174643 1.8877
RightToes  -4.65661e-009 0 -3.6325e-017
Spine  4.76957 0.457482 2.93568
Spine1  4.19007 0.871535 -1.61521
HEad  -8.06608 -14.6088 -6.35682
LeftShoulder1  -0.786772 5.53561 -32.5614
LeftArm  -0.651514 16.1649 -41.0587
LeftForeArm  23.5279 -20.9733 -3.99184
LeftHand  -0.0566598 7.69524 -0.643461
RightShoulder  -0.958536 -6.11488 30.1383
RightArm  11.4798 -26.7951 42.4503
RightForeArm  28.666 5.9253 5.33532
RightHand  0.018938 -3.34816 2.2981
LeftUpLeg  -3.8043 4.27764 -0.806185
LeftLeg  2.09841 0.639935 0.152951
LeftFoot  -0.0572337 -0.241259 2.44359
LeftToes  9.86798e-010 -1.28139e-010 1.4132e-011
453
root  87.9345 39.3534 -3.32449 -32.5604 -85.587 34.0832
RightUpLeg  -2.58028 -10.427 -7.83973
RightLeg  2.39339 -5.12225 0.763249
RightFoot  -1.52456 -0.172828 1.84742
RightToes  -4.65661e-009 0 -3.6325e-017
Spine  4.89505 0.423789 2.6775
Spine1  3.95473 0.877215 -1.81556
HEad  -7.57935 -12.8379 -6.33489
LeftShoulder1  -0.78733 5.53717 -32.5546
LeftArm  -1.77481 16.065 -40.8002
LeftForeArm  24.226 -21.1215 -3.8927
LeftHand  -0.0384758 6.46506 -0.597222
RightShoulder  -0.953073 -6.10547 30.0582
RightArm  11.396 -27.3846 41.6502
RightForeArm  27.2846 6.3675 5.17567
RightHand  0.00820024 -3.18267 2.13773
LeftUpLeg  -3.15518 4.31876 -0.936096
LeftLeg  2.00493 2.21193 0.211514
LeftFoot  -0.250208 -0.233068 2.41669
LeftToes  9.86798e-010 -1.28139e-010 1.4132e-011
454
root  87.9105 39.3591 -3.31114 -53.3436 -87.2048 54.6565
RightUpLeg  -2.5797 -9.94693 -7.44292
RightLeg  2.01668 -3.59413 0.535673
RightFoot  -1.24833 -0.174948 1.88845
RightToes  -4.65661e-009 0 -3.6325e-017
Spine  4.5135 0.565363 2.85068
Spine1  4.40144 1.12475 -2.31078
HEad  -7.83141 -11.2338 -6.24326
LeftShoulder1  -0.734079 5.41577 -32.2388
LeftArm  -1.6612 15.9377 -40.6449
LeftForeArm  23.5152 -21.9005 -3.81475
LeftHand  -0.0307628 5.66659 -1.33786
RightShoulder  -0.917699 -6.02523 29.8138
RightArm  11.2803 -25.912 41.4977
RightForeArm  28.412 6.22902 5.07383
RightHand  -0.0163382 -5.00168 4.38721
LeftUpLeg  -2.69547 4.72935 -0.62259
LeftLeg  2.10824 3.8644 0.158843
LeftFoot  -0.519045 -0.217671 2.32913
LeftToes  9.86798e-010 -1.28139e-010 1.4132e-011
455
root  87.9028 39.3674 -3.3036 -88.1225 -87.7495 89.3178
RightUpLeg  -2.66105 -9.751 -7.24236
RightLeg  1.75758 -2.18207 0.420483
RightFoot  -0.997686 -0.173088 1.83581
RightToes  -4.65661e-009 0 -3.6325e-017
Spine  4.20287 0.609113 2.58806
Spine1  4.49622 1.1549 -2.28132
HEad  -7.85465 -9.72798 -6.35192
LeftShoulder1  -0.745951 5.44944 -32.1832
LeftArm  -0.706762 15.7042 -40.2959
LeftForeArm  22.3745 -22.8878 -3.82393
LeftHand  -0.0397656 7.20298 -0.0863393
RightShoulder  -0.926535 -6.05147 29.7889
RightArm  11.3527 -23.1262 41.2145
RightForeArm  26.9422 6.20698 5.20035
RightHand  0.122718 -1.02955 3.48851
LeftUpLeg  -2.15069 4.96939 -0.464516
LeftLeg  1.69094 5.26637 0.0637732
LeftFoot  -0.701918 -0.178608 1.96444
LeftToes  9.86798e-010 -1.28139e-010 1.4132e-011
456
root  87.9116 39.371 -3.31175 -128.635 -87.1637 129.5
RightUpLeg  -2.67733 -9.34398 -6.94164
RightLeg  1.70358 -0.851618 0.131107
RightFoot  -0.91475 -0.206295 2.19237
RightToes  -4.65661e-009 0 -3.6325e-017
Spine  4.15967 0.663358 2.33767
Spine1  4.53062 1.20818 -2.30541
HEad  -7.4124 -8.13775 -6.78817
LeftShoulder1  -0.707081 5.34531 -32.2353
LeftArm  -1.19787 15.3311 -39.9393
LeftForeArm  23.1284 -23.138 -3.79967
LeftHand  -0.0351511 5.62019 -0.909195
RightShoulder  -0.910069 -6.00977 29.7288
RightArm  11.7116 -18.9758 41.3244
RightForeArm  26.7617 6.29625 5.45689
RightHand  0.106879 -1.80012 4.10103
LeftUpLeg  -1.49893 5.36311 -0.202785
LeftLeg  1.50014 6.62373 -0.110499
LeftFoot  -0.704768 -0.192543 2.11175
LeftToes  9.86798e-010 -1.28139e-010 1.4132e-011
